<svg xmlns="http://www.w3.org/2000/svg" width="14.98" height="14.013" viewBox="0 0 14.98 14.013">
  <path id="Search_mail_icon" data-name="Search mail icon" d="M1251.649,85.406c.014.013.031.038.042.037.435-.07.674.2.939.449q1.575,1.488,3.17,2.957c.189.174.181.3.009.463-.215.2-.43.4-.643.6a.274.274,0,0,1-.426,0c-1.181-1.1-2.369-2.2-3.533-3.322-.136-.131-.14-.381-.212-.6a6.275,6.275,0,0,1-5.537,1.185,5.843,5.843,0,0,1-3.484-2.363,5.427,5.427,0,0,1,1.151-7.492,6.475,6.475,0,0,1,7.647-.146A5.5,5.5,0,0,1,1251.649,85.406Zm.112-3.944c.057-2.2-2.392-4.618-5.5-4.151a4.523,4.523,0,0,0-3.91,5.109,4.739,4.739,0,0,0,5.487,3.624A4.5,4.5,0,0,0,1251.761,81.462Z" transform="translate(-1240.959 -76)" fill="#fff"/>
</svg>
